<?xml version="1.0" encoding="UTF-8"?>
<svg xmlns="http://www.w3.org/2000/svg" viewBox="0 0 100 100" fill="none">
  <rect x="0" y="0" width="100%" height="100%" fill="#faf8f5"/>
  <path d="M 22 34 L 24.08841907552083 34.13688221801903 L 26.141104721640332 34.54518677937491 L 28.122934917841437 35.21792747981941 L 30 36.14359353944898 L 31.74018286413953 37.30634655534024 L 33.31370849898476 38.68629150101524 L 34.69365344465976 40.25981713586047 L 35.856406460551014 42 L 36.78207252018059 43.877065082158566 L 37.45481322062509 45.85889527835967 L 37.86311778198097 47.911580924479175 L 38 50 L 37.86311778198097 52.088419075520825 L 37.45481322062509 54.14110472164033 L 36.78207252018059 56.122934917841434 L 35.85640646055102 58 L 34.69365344465976 59.740182864139534 L 33.31370849898476 61.31370849898476 L 31.740182864139534 62.69365344465976 L 30 63.85640646055102 L 28.122934917841437 64.78207252018059 L 26.141104721640335 65.45481322062508 L 24.088419075520825 65.86311778198096 L 22 66 L 19.91158092447917 65.86311778198096 L 17.858895278359675 65.4548132206251 L 15.877065082158564 64.78207252018059 L 13.999999999999996 63.856406460551014 L 12.259817135860475 62.693653444659766 L 10.68629150101524 61.31370849898476 L 9.30634655534024 59.740182864139534 L 8.143593539448984 58.00000000000001 L 7.217927479819416 56.12293491784145 L 6.545186779374907 54.14110472164033 L 6.136882218019034 52.088419075520825 L 6 50 L 6.136882218019032 47.91158092447918 L 6.545186779374905 45.858895278359675 L 7.217927479819414 43.87706508215856 L 8.143593539448982 42 L 9.306346555340237 40.25981713586047 L 10.686291501015237 38.68629150101524 L 12.259817135860466 37.30634655534024 L 13.999999999999993 36.143593539448986 L 15.877065082158555 35.217927479819416 L 17.858895278359668 34.54518677937491 L 19.911580924479175 34.13688221801903 Z" stroke="#1a1a1a" stroke-width="1.2" fill="none"/>
  <path d="M 50 32 L 54.11449676604731 44.33688103937537 L 67.11901729331277 44.43769410125095 L 56.657395614066075 52.16311896062463 L 60.58013454126451 64.56230589874906 L 50 57 L 39.41986545873549 64.56230589874906 L 43.342604385933925 52.16311896062463 L 32.880982706687234 44.43769410125095 L 45.88550323395269 44.33688103937537 Z" stroke="#c45c26" stroke-width="1.2" fill="none"/>
  <path d="M 78 34 L 79.53960071783901 36.666666666666664 L 78 39.333333333333336 L 81.079201435678 39.333333333333336 L 82.61880215351701 42 L 81.079201435678 44.666666666666664 L 77.99999999999999 44.666666666666664 L 79.539600717839 47.333333333333336 L 77.99999999999999 50 L 81.07920143567799 50 L 82.618802153517 52.66666666666667 L 84.158402871356 50 L 87.237604307034 50 L 88.77720502487301 52.666666666666664 L 87.237604307034 55.333333333333336 L 90.316805742712 55.333333333333336 L 91.85640646055101 58 L 88.77720502487301 58 L 87.23760430703402 55.333333333333336 L 85.69800358919501 58 L 82.61880215351701 58 L 81.079201435678 55.333333333333336 L 82.61880215351701 52.666666666666664 L 79.53960071783901 52.666666666666664 L 78 50 L 76.46039928216099 52.66666666666667 L 73.38119784648299 52.666666666666664 L 74.920798564322 55.333333333333336 L 73.38119784648299 58.00000000000001 L 70.30199641080499 58.00000000000001 L 68.76239569296598 55.33333333333334 L 67.22279497512699 58.00000000000001 L 64.14359353944899 58.00000000000001 L 65.683194257288 55.33333333333334 L 68.762395692966 55.33333333333334 L 67.22279497512699 52.66666666666667 L 68.762395692966 50.00000000000001 L 71.841597128644 50.00000000000001 L 73.381197846483 52.66666666666667 L 74.92079856432201 50 L 78.00000000000001 50 L 76.460399282161 47.333333333333336 L 78.00000000000001 44.666666666666664 L 74.920798564322 44.666666666666664 L 73.38119784648299 42 L 74.920798564322 39.333333333333336 L 78 39.333333333333336 L 76.46039928216099 36.666666666666664 Z" stroke="#2a6f97" stroke-width="1.2" fill="none"/>
</svg>