<?xml version="1.0" encoding="UTF-8"?>
<svg xmlns="http://www.w3.org/2000/svg" viewBox="0 0 100 100" fill="none">
  <rect x="0" y="0" width="100%" height="100%" fill="#faf8f5"/>
  <path d="M 38 12 L 62 12 L 62 38 L 88 38 L 88 62 L 62 62 L 62 88 L 38 88 L 38 62 L 12 62 L 12 38 L 38 38 Z" stroke="#888" stroke-width="1" fill="none"/>
  <path d="M 58 16 L 58 38 L 58.03 38.5 L 58.13 39 L 58.28 39.480000000000004 L 58.5 39.94 L 58.77 40.36 L 59.1 40.75 L 59.47 41.1 L 59.88 41.39 L 60.32 41.63 L 60.800000000000004 41.81 L 61.29 41.94 L 61.79 41.99 L 62 42 L 84 42 L 84 58 L 62 58 L 61.5 58.03 L 61 58.13 L 60.52 58.28 L 60.06 58.5 L 59.64 58.77 L 59.25 59.1 L 58.9 59.47 L 58.61 59.88 L 58.370000000000005 60.32 L 58.19 60.800000000000004 L 58.06 61.29 L 58.01 61.79 L 58 62 L 58 84 L 42 84 L 42 62 L 41.97 61.5 L 41.87 61 L 41.72 60.52 L 41.5 60.06 L 41.230000000000004 59.64 L 40.9 59.25 L 40.53 58.9 L 40.12 58.61 L 39.68 58.370000000000005 L 39.2 58.19 L 38.71 58.06 L 38.21 58.01 L 38 58 L 16 58 L 16 42 L 38 42 L 38.5 41.97 L 39 41.87 L 39.480000000000004 41.72 L 39.94 41.5 L 40.36 41.230000000000004 L 40.75 40.9 L 41.1 40.53 L 41.39 40.12 L 41.63 39.68 L 41.81 39.2 L 41.94 38.71 L 41.99 38.21 L 42 38 L 42 16 Z" stroke="#c45c26" stroke-width="1.15" fill="none"/>
  <path d="M 54 20 L 54 38 L 54.01 38.24 L 54.04 38.74 L 54.1 39.24 L 54.11 39.28 L 54.21 39.78 L 54.31 40.19 L 54.46 40.67 L 54.64 41.15 L 54.67 41.21 L 54.89 41.67 L 55.14 42.1 L 55.410000000000004 42.52 L 55.71 42.93 L 55.72 42.94 L 56.050000000000004 43.33 L 56.35 43.660000000000004 L 56.72 44.01 L 57.11 44.33 L 57.160000000000004 44.37 L 57.57 44.660000000000004 L 57.96 44.9 L 58.4 45.14 L 58.86 45.36 L 58.92 45.38 L 59.4 45.56 L 59.77 45.68 L 60.26 45.81 L 60.76 45.9 L 60.89 45.92 L 61.39 45.97 L 61.6 45.99 L 61.81 46 L 80 46 L 80 54 L 62 54 L 61.76 54.01 L 61.26 54.04 L 60.76 54.1 L 60.72 54.11 L 60.22 54.21 L 59.81 54.31 L 59.33 54.46 L 58.85 54.64 L 58.79 54.67 L 58.33 54.89 L 57.9 55.14 L 57.480000000000004 55.410000000000004 L 57.07 55.71 L 57.06 55.72 L 56.67 56.050000000000004 L 56.34 56.35 L 55.99 56.72 L 55.67 57.11 L 55.63 57.160000000000004 L 55.34 57.57 L 55.1 57.96 L 54.86 58.4 L 54.64 58.86 L 54.620000000000005 58.92 L 54.44 59.4 L 54.32 59.77 L 54.19 60.26 L 54.1 60.76 L 54.08 60.89 L 54.03 61.39 L 54.01 61.6 L 54 61.81 L 54 80 L 46 80 L 46 62 L 45.99 61.76 L 45.96 61.26 L 45.9 60.76 L 45.89 60.72 L 45.79 60.22 L 45.69 59.81 L 45.54 59.33 L 45.36 58.85 L 45.33 58.79 L 45.11 58.33 L 44.86 57.9 L 44.59 57.480000000000004 L 44.29 57.07 L 44.28 57.06 L 43.95 56.67 L 43.65 56.34 L 43.28 55.99 L 42.89 55.67 L 42.84 55.63 L 42.43 55.34 L 42.04 55.1 L 41.6 54.86 L 41.14 54.64 L 41.08 54.620000000000005 L 40.6 54.44 L 40.230000000000004 54.32 L 39.74 54.19 L 39.24 54.1 L 39.11 54.08 L 38.61 54.03 L 38.4 54.01 L 38.19 54 L 20 54 L 20 46 L 38 46 L 38.24 45.99 L 38.74 45.96 L 39.24 45.9 L 39.28 45.89 L 39.78 45.79 L 40.19 45.69 L 40.67 45.54 L 41.15 45.36 L 41.21 45.33 L 41.67 45.11 L 42.1 44.86 L 42.52 44.59 L 42.93 44.29 L 42.94 44.28 L 43.33 43.95 L 43.660000000000004 43.65 L 44.01 43.28 L 44.33 42.89 L 44.37 42.84 L 44.660000000000004 42.43 L 44.9 42.04 L 45.14 41.6 L 45.36 41.14 L 45.38 41.08 L 45.56 40.6 L 45.68 40.230000000000004 L 45.81 39.74 L 45.9 39.24 L 45.92 39.11 L 45.97 38.61 L 45.99 38.4 L 46 38.19 L 46 20 Z" stroke="#2a6f97" stroke-width="1.15" fill="none"/>
  <path d="M 50.01 38.410000000000004 L 50.02 38.480000000000004 L 50.050000000000004 38.980000000000004 L 50.07 39.22 L 50.13 39.72 L 50.22 40.21 L 50.230000000000004 40.25 L 50.29 40.56 L 50.32 40.730000000000004 L 50.42 41.14 L 50.49 41.38 L 50.64 41.86 L 50.71 42.07 L 50.89 42.550000000000004 L 51.06 42.94 L 51.28 43.4 L 51.43 43.68 L 51.68 44.11 L 51.78 44.26 L 52.050000000000004 44.68 L 52.18 44.88 L 52.480000000000004 45.29 L 52.67 45.51 L 52.67 45.52 L 53 45.910000000000004 L 53.09 46.02 L 53.39 46.35 L 53.6 46.57 L 53.97 46.92 L 54.18 47.1 L 54.57 47.42 L 54.61 47.45 L 54.660000000000004 47.49 L 54.85 47.64 L 55.26 47.93 L 55.47 48.07 L 55.86 48.31 L 56.04 48.410000000000004 L 56.480000000000004 48.65 L 56.67 48.75 L 57.13 48.97 L 57.52 49.120000000000005 L 57.52 49.13 L 58 49.31 L 58.17 49.36 L 58.54 49.480000000000004 L 58.74 49.550000000000004 L 59.230000000000004 49.68 L 59.550000000000004 49.75 L 60.050000000000004 49.84 L 60.15 49.85 L 60.28 49.870000000000005 L 60.49 49.9 L 60.99 49.95 L 61.01 49.95 L 61.22 49.97 L 61.410000000000004 49.99 L 61.620000000000005 50 L 61.83 50 L 61.59 50.01 L 61.52 50.02 L 61.02 50.050000000000004 L 60.78 50.07 L 60.28 50.13 L 59.94 50.19 L 59.44 50.29 L 59.27 50.32 L 58.86 50.42 L 58.620000000000005 50.49 L 58.14 50.64 L 57.93 50.71 L 57.45 50.89 L 57.06 51.06 L 56.6 51.28 L 56.32 51.43 L 55.89 51.68 L 55.74 51.78 L 55.32 52.050000000000004 L 55.120000000000005 52.18 L 54.71 52.480000000000004 L 54.480000000000004 52.67 L 54.09 53 L 53.980000000000004 53.09 L 53.65 53.39 L 53.43 53.6 L 53.08 53.97 L 52.9 54.18 L 52.58 54.57 L 52.550000000000004 54.61 L 52.51 54.660000000000004 L 52.36 54.85 L 52.07 55.26 L 51.93 55.47 L 51.69 55.86 L 51.59 56.04 L 51.35 56.480000000000004 L 51.25 56.67 L 51.03 57.13 L 50.870000000000005 57.52 L 50.69 58 L 50.64 58.17 L 50.52 58.54 L 50.45 58.74 L 50.32 59.230000000000004 L 50.25 59.550000000000004 L 50.160000000000004 60.050000000000004 L 50.15 60.15 L 50.13 60.28 L 50.1 60.49 L 50.050000000000004 60.99 L 50.050000000000004 61.01 L 50.03 61.22 L 50.01 61.410000000000004 L 50 61.620000000000005 L 50 61.83 L 49.99 61.59 L 49.980000000000004 61.52 L 49.95 61.02 L 49.93 60.78 L 49.870000000000005 60.28 L 49.78 59.79 L 49.77 59.75 L 49.71 59.44 L 49.68 59.27 L 49.58 58.86 L 49.51 58.620000000000005 L 49.36 58.14 L 49.29 57.93 L 49.11 57.45 L 48.94 57.06 L 48.910000000000004 57 L 48.72 56.6 L 48.57 56.32 L 48.32 55.89 L 48.22 55.74 L 47.95 55.32 L 47.82 55.120000000000005 L 47.52 54.71 L 47.19 54.32 L 47 54.09 L 46.910000000000004 53.980000000000004 L 46.61 53.65 L 46.4 53.43 L 46.03 53.08 L 45.82 52.9 L 45.43 52.58 L 45.39 52.550000000000004 L 45.34 52.51 L 45.15 52.36 L 44.74 52.07 L 44.53 51.93 L 44.14 51.69 L 43.96 51.59 L 43.52 51.35 L 43.33 51.25 L 42.87 51.03 L 42.47 50.870000000000005 L 42.480000000000004 50.870000000000005 L 42 50.69 L 41.83 50.64 L 41.46 50.52 L 41.26 50.45 L 40.77 50.32 L 40.45 50.25 L 39.95 50.160000000000004 L 39.85 50.15 L 39.72 50.13 L 39.51 50.1 L 39.01 50.050000000000004 L 38.99 50.050000000000004 L 38.78 50.03 L 38.59 50.01 L 38.38 50 L 38.17 50 L 38.410000000000004 49.99 L 38.480000000000004 49.980000000000004 L 38.980000000000004 49.95 L 39.22 49.93 L 39.72 49.870000000000005 L 40.050000000000004 49.800000000000004 L 40.06 49.81 L 40.56 49.71 L 40.730000000000004 49.68 L 41.14 49.58 L 41.38 49.51 L 41.86 49.36 L 42.07 49.29 L 42.550000000000004 49.11 L 42.94 48.94 L 43.4 48.72 L 43.68 48.57 L 44.11 48.32 L 44.26 48.22 L 44.68 47.95 L 44.88 47.82 L 45.29 47.52 L 45.51 47.32 L 45.52 47.33 L 45.910000000000004 47 L 46.02 46.910000000000004 L 46.35 46.61 L 46.57 46.4 L 46.92 46.03 L 47.1 45.82 L 47.42 45.43 L 47.45 45.39 L 47.49 45.34 L 47.64 45.15 L 47.93 44.74 L 48.07 44.53 L 48.31 44.14 L 48.410000000000004 43.96 L 48.65 43.52 L 48.75 43.33 L 48.97 42.87 L 49.120000000000005 42.47 L 49.13 42.480000000000004 L 49.31 42 L 49.36 41.83 L 49.480000000000004 41.46 L 49.550000000000004 41.26 L 49.68 40.77 L 49.75 40.45 L 49.84 39.95 L 49.85 39.85 L 49.870000000000005 39.72 L 49.9 39.51 L 49.95 39.01 L 49.95 38.99 L 49.97 38.78 L 49.99 38.59 L 50 38.38 L 50 38.19 Z" stroke="#c45c26" stroke-width="1.15" fill="none"/>
  <path d="M 50.13 48.71 L 50.43 49.04 L 50.5 49.11 L 50.71 49.33 L 50.85 49.480000000000004 L 51.22 49.83 L 51.370000000000005 49.96 L 51.42 50 L 51.29 50.13 L 50.96 50.43 L 50.89 50.5 L 50.67 50.71 L 50.52 50.85 L 50.17 51.22 L 50.04 51.370000000000005 L 49.99 51.42 L 49.870000000000005 51.29 L 49.57 50.96 L 49.5 50.89 L 49.29 50.67 L 49.15 50.52 L 48.78 50.17 L 48.63 50.04 L 48.57 49.99 L 48.71 49.870000000000005 L 49.04 49.57 L 49.11 49.5 L 49.33 49.29 L 49.480000000000004 49.15 L 49.83 48.78 L 49.96 48.63 L 50 48.57 Z" stroke="#2a6f97" stroke-width="1.15" fill="none"/>
</svg>