<?xml version="1.0" encoding="UTF-8"?>
<svg xmlns="http://www.w3.org/2000/svg" viewBox="0 0 100 100" fill="none">
  <rect x="0" y="0" width="100%" height="100%" fill="#faf8f5"/>
  <path d="M 10.25228328205717 20.768611702168307 L 26.949158638089017 17.819675128006267 L 44.44698654579416 17.58062077157613 L 37.867818610972776 32.439859076193414 L 29.765543833412554 44.265522961785805 L 15.112295648676394 39.09242282912534 L 22.503613587468863 60.01538088545203 L 18.113608168042227 76.23981922023005 L 26.666298497343075 89.17002784526635 L 32.609911368119064 70.4846312452478 L 41.17011162823645 88.20027374837319 L 36.93998710591655 56.502470470438666 L 54.57878828351055 55.080765960227666 L 53.20767494744499 69.50306933086725 L 62.917632366811766 82.4646791167738 L 77.1800025527065 79.27844956031433 L 78.8137996692438 64.79049542907073 L 87.21524576956344 36.77939620368545 L 76.55533270989648 48.046431810812436 L 57.15298719148314 38.42668913834373 L 66.8847513005347 11.593866738559191 L 73.02159952882509 26.85708714241 L 85.088629914053 18.206689693780646" stroke="#c45c26" stroke-width="1.2" fill="none"/>
  <circle cx="10.25228328205717" cy="20.768611702168307" r="2" fill="#c45c26" stroke="none"/>
  <circle cx="26.949158638089017" cy="17.819675128006267" r="2" fill="#c45c26" stroke="none"/>
  <circle cx="44.44698654579416" cy="17.58062077157613" r="2" fill="#c45c26" stroke="none"/>
  <circle cx="37.867818610972776" cy="32.439859076193414" r="2" fill="#c45c26" stroke="none"/>
  <circle cx="29.765543833412554" cy="44.265522961785805" r="2" fill="#c45c26" stroke="none"/>
  <circle cx="15.112295648676394" cy="39.09242282912534" r="2" fill="#c45c26" stroke="none"/>
  <circle cx="22.503613587468863" cy="60.01538088545203" r="2" fill="#c45c26" stroke="none"/>
  <circle cx="18.113608168042227" cy="76.23981922023005" r="2" fill="#c45c26" stroke="none"/>
  <circle cx="26.666298497343075" cy="89.17002784526635" r="2" fill="#c45c26" stroke="none"/>
  <circle cx="32.609911368119064" cy="70.4846312452478" r="2" fill="#c45c26" stroke="none"/>
  <circle cx="41.17011162823645" cy="88.20027374837319" r="2" fill="#c45c26" stroke="none"/>
  <circle cx="36.93998710591655" cy="56.502470470438666" r="2" fill="#c45c26" stroke="none"/>
  <circle cx="54.57878828351055" cy="55.080765960227666" r="2" fill="#c45c26" stroke="none"/>
  <circle cx="53.20767494744499" cy="69.50306933086725" r="2" fill="#c45c26" stroke="none"/>
  <circle cx="62.917632366811766" cy="82.4646791167738" r="2" fill="#c45c26" stroke="none"/>
  <circle cx="77.1800025527065" cy="79.27844956031433" r="2" fill="#c45c26" stroke="none"/>
  <circle cx="78.8137996692438" cy="64.79049542907073" r="2" fill="#c45c26" stroke="none"/>
  <circle cx="87.21524576956344" cy="36.77939620368545" r="2" fill="#c45c26" stroke="none"/>
  <circle cx="76.55533270989648" cy="48.046431810812436" r="2" fill="#c45c26" stroke="none"/>
  <circle cx="57.15298719148314" cy="38.42668913834373" r="2" fill="#c45c26" stroke="none"/>
  <circle cx="66.8847513005347" cy="11.593866738559191" r="2" fill="#c45c26" stroke="none"/>
  <circle cx="73.02159952882509" cy="26.85708714241" r="2" fill="#c45c26" stroke="none"/>
  <circle cx="85.088629914053" cy="18.206689693780646" r="2" fill="#c45c26" stroke="none"/>
</svg>