<?xml version="1.0" encoding="UTF-8"?>
<svg xmlns="http://www.w3.org/2000/svg" viewBox="0 0 100 100" fill="none">
  <rect x="0" y="0" width="100%" height="100%" fill="#faf8f5"/>
  <path d="M 21.794228634059948 9.5 L 21.794228634059948 18.5 L 14 23 L 6.205771365940052 18.5 L 6.205771365940053 9.5 L 13.999999999999998 5 Z" stroke="#1a1a1a" stroke-width="1" fill="none"/>
  <path d="M 35.29422863405995 9.5 L 35.29422863405995 18.5 L 27.5 23 L 19.705771365940052 18.5 L 19.705771365940052 9.5 L 27.5 5 Z" stroke="#1a1a1a" stroke-width="1" fill="none"/>
  <path d="M 48.79422863405995 9.5 L 48.79422863405995 18.5 L 41 23 L 33.20577136594005 18.5 L 33.20577136594005 9.5 L 41 5 Z" stroke="#1a1a1a" stroke-width="1" fill="none"/>
  <path d="M 62.29422863405995 9.5 L 62.29422863405995 18.5 L 54.5 23 L 46.70577136594005 18.5 L 46.70577136594005 9.5 L 54.5 5 Z" stroke="#1a1a1a" stroke-width="1" fill="none"/>
  <path d="M 75.79422863405995 9.5 L 75.79422863405995 18.5 L 68 23 L 60.20577136594005 18.5 L 60.20577136594005 9.5 L 68 5 Z" stroke="#1a1a1a" stroke-width="1" fill="none"/>
  <path d="M 89.29422863405995 9.5 L 89.29422863405995 18.5 L 81.5 23 L 73.70577136594005 18.5 L 73.70577136594005 9.5 L 81.5 5 Z" stroke="#1a1a1a" stroke-width="1" fill="none"/>
  <path d="M 102.79422863405995 9.5 L 102.79422863405995 18.5 L 95 23 L 87.20577136594005 18.5 L 87.20577136594005 9.5 L 95 5 Z" stroke="#1a1a1a" stroke-width="1" fill="none"/>
  <path d="M 28.544228634059948 25.088457268119896 L 28.544228634059948 34.088457268119896 L 20.75 38.588457268119896 L 12.955771365940052 34.088457268119896 L 12.955771365940052 25.088457268119896 L 20.75 20.588457268119896 Z" stroke="#1a1a1a" stroke-width="1" fill="none"/>
  <path d="M 42.04422863405995 25.088457268119896 L 42.04422863405995 34.088457268119896 L 34.25 38.588457268119896 L 26.455771365940052 34.088457268119896 L 26.455771365940052 25.088457268119896 L 34.25 20.588457268119896 Z" stroke="#1a1a1a" stroke-width="1" fill="none"/>
  <path d="M 55.54422863405995 25.088457268119896 L 55.54422863405995 34.088457268119896 L 47.75 38.588457268119896 L 39.95577136594005 34.088457268119896 L 39.95577136594005 25.088457268119896 L 47.75 20.588457268119896 Z" stroke="#1a1a1a" stroke-width="1" fill="none"/>
  <path d="M 69.04422863405995 25.088457268119896 L 69.04422863405995 34.088457268119896 L 61.25 38.588457268119896 L 53.45577136594005 34.088457268119896 L 53.45577136594005 25.088457268119896 L 61.25 20.588457268119896 Z" stroke="#1a1a1a" stroke-width="1" fill="none"/>
  <path d="M 82.54422863405995 25.088457268119896 L 82.54422863405995 34.088457268119896 L 74.75 38.588457268119896 L 66.95577136594005 34.088457268119896 L 66.95577136594005 25.088457268119896 L 74.75 20.588457268119896 Z" stroke="#1a1a1a" stroke-width="1" fill="none"/>
  <path d="M 96.04422863405995 25.088457268119896 L 96.04422863405995 34.088457268119896 L 88.25 38.588457268119896 L 80.45577136594005 34.088457268119896 L 80.45577136594005 25.088457268119896 L 88.25 20.588457268119896 Z" stroke="#1a1a1a" stroke-width="1" fill="none"/>
  <path d="M 109.54422863405995 25.088457268119896 L 109.54422863405995 34.088457268119896 L 101.75 38.588457268119896 L 93.95577136594005 34.088457268119896 L 93.95577136594005 25.088457268119896 L 101.75 20.588457268119896 Z" stroke="#1a1a1a" stroke-width="1" fill="none"/>
  <path d="M 21.794228634059948 40.67691453623979 L 21.794228634059948 49.67691453623979 L 14 54.17691453623979 L 6.205771365940052 49.67691453623979 L 6.205771365940053 40.67691453623979 L 13.999999999999998 36.17691453623979 Z" stroke="#1a1a1a" stroke-width="1" fill="none"/>
  <path d="M 35.29422863405995 40.67691453623979 L 35.29422863405995 49.67691453623979 L 27.5 54.17691453623979 L 19.705771365940052 49.67691453623979 L 19.705771365940052 40.67691453623979 L 27.5 36.17691453623979 Z" stroke="#1a1a1a" stroke-width="1" fill="none"/>
  <path d="M 48.79422863405995 40.67691453623979 L 48.79422863405995 49.67691453623979 L 41 54.17691453623979 L 33.20577136594005 49.67691453623979 L 33.20577136594005 40.67691453623979 L 41 36.17691453623979 Z" stroke="#1a1a1a" stroke-width="1" fill="none"/>
  <path d="M 62.29422863405995 40.67691453623979 L 62.29422863405995 49.67691453623979 L 54.5 54.17691453623979 L 46.70577136594005 49.67691453623979 L 46.70577136594005 40.67691453623979 L 54.5 36.17691453623979 Z" stroke="#1a1a1a" stroke-width="1" fill="none"/>
  <path d="M 75.79422863405995 40.67691453623979 L 75.79422863405995 49.67691453623979 L 68 54.17691453623979 L 60.20577136594005 49.67691453623979 L 60.20577136594005 40.67691453623979 L 68 36.17691453623979 Z" stroke="#1a1a1a" stroke-width="1" fill="none"/>
  <path d="M 89.29422863405995 40.67691453623979 L 89.29422863405995 49.67691453623979 L 81.5 54.17691453623979 L 73.70577136594005 49.67691453623979 L 73.70577136594005 40.67691453623979 L 81.5 36.17691453623979 Z" stroke="#1a1a1a" stroke-width="1" fill="none"/>
  <path d="M 102.79422863405995 40.67691453623979 L 102.79422863405995 49.67691453623979 L 95 54.17691453623979 L 87.20577136594005 49.67691453623979 L 87.20577136594005 40.67691453623979 L 95 36.17691453623979 Z" stroke="#1a1a1a" stroke-width="1" fill="none"/>
  <path d="M 28.544228634059948 56.26537180435969 L 28.544228634059948 65.26537180435969 L 20.75 69.76537180435969 L 12.955771365940052 65.26537180435969 L 12.955771365940052 56.26537180435969 L 20.75 51.76537180435969 Z" stroke="#1a1a1a" stroke-width="1" fill="none"/>
  <path d="M 42.04422863405995 56.26537180435969 L 42.04422863405995 65.26537180435969 L 34.25 69.76537180435969 L 26.455771365940052 65.26537180435969 L 26.455771365940052 56.26537180435969 L 34.25 51.76537180435969 Z" stroke="#1a1a1a" stroke-width="1" fill="none"/>
  <path d="M 55.54422863405995 56.26537180435969 L 55.54422863405995 65.26537180435969 L 47.75 69.76537180435969 L 39.95577136594005 65.26537180435969 L 39.95577136594005 56.26537180435969 L 47.75 51.76537180435969 Z" stroke="#1a1a1a" stroke-width="1" fill="none"/>
  <path d="M 69.04422863405995 56.26537180435969 L 69.04422863405995 65.26537180435969 L 61.25 69.76537180435969 L 53.45577136594005 65.26537180435969 L 53.45577136594005 56.26537180435969 L 61.25 51.76537180435969 Z" stroke="#1a1a1a" stroke-width="1" fill="none"/>
  <path d="M 82.54422863405995 56.26537180435969 L 82.54422863405995 65.26537180435969 L 74.75 69.76537180435969 L 66.95577136594005 65.26537180435969 L 66.95577136594005 56.26537180435969 L 74.75 51.76537180435969 Z" stroke="#1a1a1a" stroke-width="1" fill="none"/>
  <path d="M 96.04422863405995 56.26537180435969 L 96.04422863405995 65.26537180435969 L 88.25 69.76537180435969 L 80.45577136594005 65.26537180435969 L 80.45577136594005 56.26537180435969 L 88.25 51.76537180435969 Z" stroke="#1a1a1a" stroke-width="1" fill="none"/>
  <path d="M 109.54422863405995 56.26537180435969 L 109.54422863405995 65.26537180435969 L 101.75 69.76537180435969 L 93.95577136594005 65.26537180435969 L 93.95577136594005 56.26537180435969 L 101.75 51.76537180435969 Z" stroke="#1a1a1a" stroke-width="1" fill="none"/>
  <path d="M 21.794228634059948 71.85382907247958 L 21.794228634059948 80.85382907247958 L 14 85.35382907247958 L 6.205771365940052 80.85382907247958 L 6.205771365940053 71.85382907247958 L 13.999999999999998 67.35382907247958 Z" stroke="#1a1a1a" stroke-width="1" fill="none"/>
  <path d="M 35.29422863405995 71.85382907247958 L 35.29422863405995 80.85382907247958 L 27.5 85.35382907247958 L 19.705771365940052 80.85382907247958 L 19.705771365940052 71.85382907247958 L 27.5 67.35382907247958 Z" stroke="#1a1a1a" stroke-width="1" fill="none"/>
  <path d="M 48.79422863405995 71.85382907247958 L 48.79422863405995 80.85382907247958 L 41 85.35382907247958 L 33.20577136594005 80.85382907247958 L 33.20577136594005 71.85382907247958 L 41 67.35382907247958 Z" stroke="#1a1a1a" stroke-width="1" fill="none"/>
  <path d="M 62.29422863405995 71.85382907247958 L 62.29422863405995 80.85382907247958 L 54.5 85.35382907247958 L 46.70577136594005 80.85382907247958 L 46.70577136594005 71.85382907247958 L 54.5 67.35382907247958 Z" stroke="#1a1a1a" stroke-width="1" fill="none"/>
  <path d="M 75.79422863405995 71.85382907247958 L 75.79422863405995 80.85382907247958 L 68 85.35382907247958 L 60.20577136594005 80.85382907247958 L 60.20577136594005 71.85382907247958 L 68 67.35382907247958 Z" stroke="#1a1a1a" stroke-width="1" fill="none"/>
  <path d="M 89.29422863405995 71.85382907247958 L 89.29422863405995 80.85382907247958 L 81.5 85.35382907247958 L 73.70577136594005 80.85382907247958 L 73.70577136594005 71.85382907247958 L 81.5 67.35382907247958 Z" stroke="#1a1a1a" stroke-width="1" fill="none"/>
  <path d="M 102.79422863405995 71.85382907247958 L 102.79422863405995 80.85382907247958 L 95 85.35382907247958 L 87.20577136594005 80.85382907247958 L 87.20577136594005 71.85382907247958 L 95 67.35382907247958 Z" stroke="#1a1a1a" stroke-width="1" fill="none"/>
  <path d="M 28.544228634059948 87.44228634059948 L 28.544228634059948 96.44228634059948 L 20.75 100.94228634059948 L 12.955771365940052 96.44228634059948 L 12.955771365940052 87.44228634059948 L 20.75 82.94228634059948 Z" stroke="#1a1a1a" stroke-width="1" fill="none"/>
  <path d="M 42.04422863405995 87.44228634059948 L 42.04422863405995 96.44228634059948 L 34.25 100.94228634059948 L 26.455771365940052 96.44228634059948 L 26.455771365940052 87.44228634059948 L 34.25 82.94228634059948 Z" stroke="#1a1a1a" stroke-width="1" fill="none"/>
  <path d="M 55.54422863405995 87.44228634059948 L 55.54422863405995 96.44228634059948 L 47.75 100.94228634059948 L 39.95577136594005 96.44228634059948 L 39.95577136594005 87.44228634059948 L 47.75 82.94228634059948 Z" stroke="#1a1a1a" stroke-width="1" fill="none"/>
  <path d="M 69.04422863405995 87.44228634059948 L 69.04422863405995 96.44228634059948 L 61.25 100.94228634059948 L 53.45577136594005 96.44228634059948 L 53.45577136594005 87.44228634059948 L 61.25 82.94228634059948 Z" stroke="#1a1a1a" stroke-width="1" fill="none"/>
  <path d="M 82.54422863405995 87.44228634059948 L 82.54422863405995 96.44228634059948 L 74.75 100.94228634059948 L 66.95577136594005 96.44228634059948 L 66.95577136594005 87.44228634059948 L 74.75 82.94228634059948 Z" stroke="#1a1a1a" stroke-width="1" fill="none"/>
  <path d="M 96.04422863405995 87.44228634059948 L 96.04422863405995 96.44228634059948 L 88.25 100.94228634059948 L 80.45577136594005 96.44228634059948 L 80.45577136594005 87.44228634059948 L 88.25 82.94228634059948 Z" stroke="#1a1a1a" stroke-width="1" fill="none"/>
  <path d="M 109.54422863405995 87.44228634059948 L 109.54422863405995 96.44228634059948 L 101.75 100.94228634059948 L 93.95577136594005 96.44228634059948 L 93.95577136594005 87.44228634059948 L 101.75 82.94228634059948 Z" stroke="#1a1a1a" stroke-width="1" fill="none"/>
</svg>